# Blender 3.1.0
# www.blender.org
mtllib candle.mtl
o Cylinder
v -5.830944 1.906333 -3.157306
v -5.902685 1.906333 -3.167552
v -5.959692 1.906333 -3.212296
v -5.986689 1.906333 -3.279549
v -5.976443 1.906333 -3.351290
v -5.931699 1.906333 -3.408297
v -5.864447 1.906333 -3.435295
v -5.792705 1.906333 -3.425049
v -5.735698 1.906333 -3.380305
v -5.708701 1.906333 -3.313052
v -5.718946 1.906333 -3.241311
v -5.763690 1.906333 -3.184304
v -5.888372 2.830813 -3.201063
v -5.835303 2.793448 -3.193484
v -5.930541 2.841836 -3.234161
v -5.950511 2.841836 -3.283909
v -5.942932 2.841836 -3.336977
v -5.909834 2.841836 -3.379146
v -5.860086 2.852271 -3.399117
v -5.807018 2.852271 -3.391538
v -5.764849 2.841836 -3.358440
v -5.744879 2.841836 -3.308692
v -5.752458 2.793448 -3.255624
v -5.785555 2.793448 -3.213454
v -5.889634 2.856878 -3.198107
v -5.892594 2.861832 -3.191178
v -5.834017 2.824467 -3.182812
v -5.834919 2.819513 -3.190293
v -5.933112 2.867901 -3.232233
v -5.939140 2.872855 -3.227711
v -5.953702 2.857941 -3.283525
v -5.961184 2.862895 -3.282623
v -5.945888 2.847482 -3.338240
v -5.952817 2.852437 -3.341200
v -5.911763 2.867901 -3.381717
v -5.916284 2.872855 -3.387746
v -5.860471 2.884451 -3.402308
v -5.861372 2.889405 -3.409789
v -5.805756 2.884451 -3.394493
v -5.802796 2.889405 -3.401423
v -5.762278 2.884451 -3.360368
v -5.756250 2.889405 -3.364890
v -5.741688 2.867901 -3.309076
v -5.734206 2.872855 -3.309978
v -5.749502 2.819513 -3.254361
v -5.742572 2.824467 -3.251401
v -5.783627 2.814387 -3.210883
v -5.779106 2.809695 -3.204855
v -5.830944 2.812620 -3.157306
v -5.831582 2.819299 -3.162600
v -5.900590 2.867687 -3.172456
v -5.902685 2.861008 -3.167552
v -5.955426 2.867687 -3.215496
v -5.959692 2.861008 -3.212296
v -5.981395 2.857727 -3.280187
v -5.986689 2.851048 -3.279549
v -5.971539 2.842048 -3.349196
v -5.976443 2.835370 -3.351290
v -5.928500 2.867687 -3.404032
v -5.931699 2.861008 -3.408297
v -5.863809 2.884237 -3.430001
v -5.864447 2.877558 -3.435295
v -5.794799 2.869378 -3.420145
v -5.792705 2.862700 -3.425049
v -5.739964 2.884237 -3.377105
v -5.735698 2.877558 -3.380305
v -5.713995 2.867687 -3.312414
v -5.708701 2.861008 -3.313052
v -5.723850 2.819299 -3.243405
v -5.718946 2.812620 -3.241311
v -5.766890 2.796122 -3.188569
v -5.763690 2.789443 -3.184304
v -5.849433 2.831256 -3.290872
v -5.845962 2.815268 -3.290427
v -5.852039 2.829665 -3.292854
v -5.852940 2.826807 -3.295668
v -5.852717 2.826807 -3.298356
v -5.851333 2.824792 -3.300719
v -5.848693 2.829867 -3.302208
v -5.846373 2.829867 -3.302111
v -5.843966 2.824792 -3.301291
v -5.841266 2.826441 -3.297906
v -5.841913 2.828450 -3.294274
v -5.843258 2.825571 -3.292203
v -5.841423 2.926745 -3.284674
v -5.836725 2.929958 -3.283304
v -5.844305 2.926487 -3.286881
v -5.845909 2.924722 -3.290231
v -5.845589 2.925244 -3.292857
v -5.844780 2.923475 -3.295646
v -5.840684 2.927717 -3.296053
v -5.838476 2.926998 -3.296026
v -5.833941 2.933137 -3.293621
v -5.829805 2.936835 -3.289150
v -5.830812 2.935472 -3.285771
v -5.833039 2.932751 -3.284348
v -5.842601 2.911759 -3.287633
v -5.845979 2.893394 -3.290443
v -5.845962 2.874091 -3.290427
v -5.845962 2.854483 -3.290427
v -5.845962 2.834875 -3.290427
v -5.843258 2.844039 -3.292203
v -5.843258 2.862507 -3.292203
v -5.843258 2.880975 -3.292203
v -5.843258 2.899444 -3.292203
v -5.838573 2.915610 -3.288426
v -5.849148 2.911488 -3.290449
v -5.851914 2.895036 -3.292740
v -5.852039 2.878148 -3.292854
v -5.852039 2.861987 -3.292854
v -5.852039 2.845826 -3.292854
v -5.849433 2.847417 -3.290872
v -5.849433 2.863578 -3.290872
v -5.849433 2.879739 -3.290872
v -5.849144 2.896049 -3.290608
v -5.846266 2.911745 -3.288242
v -5.834958 2.920877 -3.292946
v -5.841312 2.903790 -3.296823
v -5.841266 2.888498 -3.297906
v -5.841266 2.871304 -3.297906
v -5.841266 2.854110 -3.297906
v -5.843966 2.843063 -3.301291
v -5.843966 2.861335 -3.301291
v -5.843966 2.879606 -3.301291
v -5.843396 2.898504 -3.300772
v -5.839416 2.916178 -3.297655
v -5.845527 2.912717 -3.299621
v -5.848502 2.895885 -3.302033
v -5.848693 2.878350 -3.302208
v -5.848693 2.862189 -3.302208
v -5.848693 2.846028 -3.302208
v -5.851333 2.840953 -3.300719
v -5.851333 2.857114 -3.300719
v -5.851333 2.873275 -3.300719
v -5.851769 2.891044 -3.301116
v -5.849623 2.908475 -3.299214
v -5.850751 2.909722 -3.293798
v -5.853147 2.892654 -3.295856
v -5.852940 2.875290 -3.295668
v -5.852940 2.859129 -3.295668
v -5.852940 2.842968 -3.295668
v -5.836347 2.918331 -3.289848
v -5.841913 2.902323 -3.294274
v -5.841913 2.883854 -3.294274
v -5.841913 2.865386 -3.294274
v -5.841913 2.846918 -3.294274
v -5.843319 2.911998 -3.299594
v -5.846200 2.895582 -3.301954
v -5.846373 2.878350 -3.302111
v -5.846373 2.862189 -3.302111
v -5.846373 2.846028 -3.302111
v -5.850432 2.910244 -3.296425
v -5.852906 2.892933 -3.298528
v -5.852717 2.875290 -3.298356
v -5.852717 2.859129 -3.298356
v -5.852717 2.842968 -3.298356
vn 0.6000 -0.0000 0.8000
vn 0.5815 0.2464 0.7753
vn 0.2204 0.2797 0.9345
vn 0.1197 -0.0000 0.9928
vn 0.4154 0.9006 -0.1277
vn 0.1407 0.9782 -0.1528
vn -0.4385 0.8596 0.2623
vn 0.0566 0.8803 0.4710
vn 0.0462 0.9811 -0.1880
vn -0.5991 0.7982 -0.0634
vn -0.0545 0.9964 0.0648
vn -0.6367 0.7397 -0.2177
vn -0.1975 0.9516 0.2355
vn -0.5206 0.7875 -0.3299
vn -0.0683 0.9962 0.0536
vn -0.0901 0.8066 -0.5841
vn 0.2137 0.8390 -0.5004
vn 0.2770 0.7091 -0.6485
vn 0.0085 0.9962 0.0864
vn 0.4843 0.8066 -0.3388
vn -0.0719 0.8984 0.4332
vn 0.5483 0.7949 0.2598
vn -0.0898 0.8708 0.4833
vn 0.4256 0.7113 0.5595
vn 0.1848 0.9514 0.2464
vn 0.4166 0.7196 0.5555
vn 0.4552 0.8899 -0.0284
vn 0.4249 0.7341 0.5296
vn 0.3898 0.1211 -0.9129
vn 0.7868 0.1350 -0.6023
vn 0.6534 0.5849 -0.4806
vn 0.5489 0.5468 -0.6323
vn -0.2510 0.3763 0.8919
vn -0.3928 -0.0000 0.9196
vn 0.9660 0.2172 -0.1402
vn 0.8890 0.2433 0.3879
vn 0.7266 0.5887 0.3544
vn 0.7819 0.5903 -0.2006
vn 0.5794 0.1569 0.7998
vn 0.3364 0.5544 0.7612
vn 0.1200 0.1044 0.9873
vn 0.0087 0.5656 0.8246
vn -0.4012 0.0920 0.9113
vn -0.3265 0.5492 0.7693
vn -0.8004 0.0896 0.5928
vn -0.6049 0.5604 0.5658
vn -0.9844 0.1088 0.1380
vn -0.7464 0.5184 0.4173
vn -0.8960 0.1319 -0.4239
vn -0.8043 0.5941 -0.0083
vn -0.5945 0.1357 -0.7926
vn -0.8000 -0.0000 0.6000
vn -0.7673 0.3298 0.5499
vn -0.9446 0.3223 0.0627
vn -0.9928 -0.0000 0.1197
vn -0.1456 0.1314 -0.9806
vn 0.1855 0.6115 -0.7692
vn -0.8942 0.2536 -0.3689
vn -0.9196 -0.0000 -0.3928
vn -0.6331 0.3250 -0.7025
vn -0.6000 -0.0000 -0.8000
vn -0.1155 0.3629 -0.9247
vn -0.1197 -0.0000 -0.9928
vn 0.3782 0.2699 -0.8855
vn 0.3928 -0.0000 -0.9196
vn 0.7478 0.3629 -0.5559
vn 0.8000 -0.0000 -0.6000
vn 0.9369 0.3479 0.0342
vn 0.9928 -0.0000 -0.1197
vn 0.8354 0.2797 0.4732
vn 0.9196 -0.0000 0.3928
vn -0.2158 0.8356 0.5052
vn 0.0166 0.9996 0.0221
vn 0.3178 0.9084 0.2716
vn 0.4189 0.8998 0.1220
vn 0.4345 0.8918 0.1262
vn 0.3165 0.9088 0.2719
vn 0.1390 0.9900 -0.0255
vn 0.1397 0.9899 -0.0235
vn 0.1354 0.9901 -0.0355
vn 0.1344 0.9902 -0.0386
vn 0.1545 0.9869 0.0472
vn 0.1545 0.9868 0.0481
vn 0.0085 0.9853 0.1707
vn -0.0088 0.9833 0.1817
vn -0.1034 0.9610 0.2563
vn -0.0979 0.9622 0.2543
vn 0.0228 0.9616 0.2736
vn 0.0256 0.9609 0.2758
vn -0.0338 0.9805 0.1937
vn -0.0420 0.9819 0.1845
vn -0.1032 0.9410 0.3224
vn -0.0956 0.9311 0.3521
vn 0.1065 0.8795 0.4637
vn 0.1236 0.8909 0.4370
vn 0.1237 0.9539 0.2735
vn 0.0889 0.9553 0.2819
vn 0.2520 -0.2492 0.9351
vn 0.7187 -0.3639 0.5925
vn 0.7211 -0.3719 0.5846
vn 0.3677 -0.3259 0.8710
vn -0.8102 0.1005 0.5775
vn -0.4070 -0.0703 0.9107
vn -0.3079 -0.1249 0.9432
vn -0.6140 0.6574 0.4369
vn 0.9336 -0.2452 -0.2613
vn 0.6327 -0.0207 -0.7741
vn 0.7329 -0.0758 -0.6761
vn 0.9528 -0.2795 -0.1184
vn -0.1937 0.2503 -0.9486
vn -0.6666 0.2286 -0.7095
vn -0.6295 0.4131 -0.6581
vn -0.0611 0.8548 -0.5153
vn -0.9733 0.1881 0.1316
vn -0.9020 0.4131 0.1257
vn 0.8846 -0.3664 0.2886
vn 0.9025 -0.3508 0.2500
vn 0.2032 0.1295 -0.9705
vn 0.2521 0.1461 -0.9566
vn -0.9201 0.2809 -0.2728
vn -0.7607 0.6084 -0.2264
vn -0.3563 0.9316 -0.0718
vn -0.3146 0.9466 0.0708
vn -0.6252 0.7801 -0.0240
vn -0.6541 0.7504 0.0949
vn -0.7481 0.6631 0.0246
vn -0.7304 0.6771 0.0896
vn -0.7073 0.7031 0.0727
vn -0.7513 -0.0000 -0.6599
vn -0.9413 -0.0000 -0.3377
vn -0.9535 -0.0000 -0.3015
vn -0.7013 -0.0000 -0.7128
vn -0.9608 -0.0113 -0.2769
vn -0.7006 -0.0043 -0.7135
vn -0.9583 0.0926 -0.2702
vn -0.6799 0.0314 -0.7326
vn 0.6758 -0.0000 -0.7370
vn 0.2206 -0.0000 -0.9754
vn 0.1838 -0.0000 -0.9830
vn 0.5752 -0.0000 -0.8180
vn 0.1879 0.0041 -0.9822
vn 0.5844 0.0045 -0.8115
vn 0.1921 0.0489 -0.9802
vn 0.6054 0.0290 -0.7954
vn -0.3336 -0.0000 0.9427
vn 0.2858 -0.0000 0.9583
vn 0.2249 -0.0000 0.9744
vn -0.3791 -0.0000 0.9254
vn 0.2270 -0.0005 0.9739
vn -0.3709 -0.0031 0.9287
vn 0.2280 -0.0460 0.9726
vn -0.4016 -0.0448 0.9147
vn 0.6153 -0.0000 0.7883
vn 0.9240 -0.0000 0.3825
vn 0.9301 -0.0000 0.3673
vn 0.7090 -0.0000 0.7052
vn 0.9294 -0.0005 0.3691
vn 0.7075 0.0003 0.7067
vn 0.9425 -0.2084 0.2612
vn 0.7746 -0.1693 0.6094
vn -0.9988 -0.0000 0.0490
vn -0.9936 -0.0000 0.1132
vn -0.9931 -0.0033 0.1176
vn -0.9914 0.0478 0.1217
vn -0.3015 -0.0000 -0.9535
vn -0.2337 -0.0000 -0.9723
vn -0.1782 -0.0013 -0.9840
vn -0.1766 0.1090 -0.9782
vn 0.9296 -0.0000 -0.3686
vn 0.9693 -0.0000 -0.2459
vn 0.9763 0.0046 -0.2164
vn 0.9595 -0.1863 -0.2112
vn -0.8755 -0.0000 0.4832
vn -0.8167 -0.0000 0.5771
vn -0.8094 -0.0009 0.5872
vn -0.8144 0.0369 0.5792
vt 0.310414 0.005806
vt 0.251083 0.004872
vt 0.190140 0.004693
vt 0.129940 0.005404
vt 0.070526 0.006589
vt 0.011083 0.007997
vt 0.990410 0.006700
vt 0.930549 0.006700
vt 0.868910 0.007104
vt 0.807243 0.007903
vt 0.743999 0.009535
vt 0.684370 0.011589
vt 0.428450 0.008560
vt 0.369449 0.007083
vt 0.251476 0.753896
vt 0.383015 0.794799
vt 0.304972 0.754857
vt 0.440487 0.687640
vt 0.203993 0.763741
vt 0.384720 0.872340
vt 0.155126 0.767457
vt 0.423189 0.938446
vt 0.105311 0.776115
vt 0.488481 0.978977
vt 0.069732 0.811829
vt 0.967905 0.850393
vt 0.565226 0.984010
vt 0.918375 0.836373
vt 0.646835 0.950317
vt 0.866874 0.828762
vt 0.695741 0.878392
vt 0.811725 0.827259
vt 0.695741 0.789042
vt 0.766037 0.804186
vt 0.662115 0.723606
vt 0.704143 0.806482
vt 0.383465 0.767961
vt 0.601656 0.671473
vt 0.345486 0.751631
vt 0.536909 0.660676
vt 0.241825 0.737064
vt 0.239933 0.731216
vt 0.295077 0.726766
vt 0.297306 0.734315
vt 0.199422 0.742496
vt 0.198280 0.735968
vt 0.153393 0.752916
vt 0.152162 0.745672
vt 0.102283 0.770290
vt 0.098378 0.762486
vt 0.052662 0.797086
vt 0.970785 0.825807
vt 0.046465 0.792302
vt 0.974032 0.818527
vt 0.922174 0.806919
vt 0.923621 0.799637
vt 0.872221 0.798418
vt 0.873593 0.790738
vt 0.823499 0.790632
vt 0.824915 0.783598
vt 0.777811 0.786597
vt 0.779736 0.780376
vt 0.717942 0.788680
vt 0.392152 0.751255
vt 0.719237 0.781341
vt 0.397150 0.745959
vt 0.348548 0.733068
vt 0.349945 0.725801
vt 0.297314 0.703691
vt 0.295629 0.709785
vt 0.237614 0.718541
vt 0.238222 0.713211
vt 0.195863 0.721664
vt 0.194827 0.716096
vt 0.147942 0.730057
vt 0.145872 0.724037
vt 0.090720 0.741823
vt 0.088401 0.734983
vt 0.034873 0.778749
vt 0.985790 0.801738
vt 0.031457 0.771905
vt 0.990410 0.795277
vt 0.928506 0.784354
vt 0.930625 0.778059
vt 0.877168 0.766457
vt 0.878093 0.759952
vt 0.825692 0.768958
vt 0.825690 0.762997
vt 0.777923 0.765829
vt 0.776270 0.759950
vt 0.713799 0.763354
vt 0.406722 0.732281
vt 0.710055 0.757287
vt 0.409236 0.725892
vt 0.353561 0.705675
vt 0.354782 0.699150
vt 0.527003 0.822825
vt 0.550186 0.431383
vt 0.523832 0.800070
vt 0.537481 0.492155
vt 0.527679 0.828481
vt 0.562610 0.437103
vt 0.532018 0.833232
vt 0.573927 0.447584
vt 0.535514 0.835526
vt 0.584059 0.447362
vt 0.540729 0.836355
vt 0.594495 0.454677
vt 0.549473 0.837252
vt 0.605471 0.435399
vt 0.551681 0.834748
vt 0.614175 0.435184
vt 0.548238 0.826692
vt 0.624125 0.453917
vt 0.546264 0.819355
vt 0.501740 0.449944
vt 0.640172 0.447365
vt 0.540158 0.815986
vt 0.515530 0.442342
vt 0.535353 0.811425
vt 0.524914 0.453142
vt 0.546939 0.074096
vt 0.816446 0.869179
vt 0.534077 0.056741
vt 0.871278 0.865178
vt 0.559274 0.079807
vt 0.785770 0.884251
vt 0.570623 0.090157
vt 0.757287 0.910324
vt 0.580919 0.090081
vt 0.757666 0.935650
vt 0.591383 0.097455
vt 0.746907 0.965717
vt 0.603628 0.079740
vt 0.801414 0.976250
vt 0.612300 0.080149
vt 0.823036 0.979153
vt 0.623251 0.053466
vt 0.897147 0.966638
vt 0.640172 0.033766
vt 0.499743 0.031017
vt 0.954687 0.932482
vt 0.513232 0.033879
vt 0.943700 0.898722
vt 0.522312 0.044229
vt 0.913077 0.880528
vt 0.534137 0.130079
vt 0.535075 0.202789
vt 0.535549 0.272239
vt 0.535945 0.344609
vt 0.536812 0.417908
vt 0.524303 0.383697
vt 0.523729 0.315019
vt 0.524148 0.246922
vt 0.523097 0.176130
vt 0.522394 0.111593
vt 0.559727 0.139256
vt 0.559301 0.198998
vt 0.559411 0.257753
vt 0.560725 0.316458
vt 0.561598 0.376530
vt 0.549296 0.370779
vt 0.548604 0.310759
vt 0.547636 0.252172
vt 0.547403 0.193986
vt 0.547481 0.134319
vt 0.500353 0.093734
vt 0.636443 0.096144
vt 0.502712 0.159060
vt 0.629324 0.162582
vt 0.500840 0.218165
vt 0.632727 0.217770
vt 0.501010 0.282522
vt 0.635912 0.280264
vt 0.501046 0.346304
vt 0.637740 0.344033
vt 0.622570 0.385633
vt 0.620955 0.317602
vt 0.618984 0.250583
vt 0.616901 0.183432
vt 0.619300 0.119051
vt 0.600825 0.136568
vt 0.600093 0.194507
vt 0.601360 0.255723
vt 0.602816 0.314953
vt 0.604186 0.374968
vt 0.593262 0.394152
vt 0.592074 0.333948
vt 0.590553 0.274434
vt 0.588808 0.212150
vt 0.589104 0.153477
vt 0.570765 0.148086
vt 0.570181 0.207520
vt 0.570344 0.267687
vt 0.571828 0.326847
vt 0.572810 0.387020
vt 0.513619 0.101032
vt 0.513023 0.163603
vt 0.515054 0.235807
vt 0.514618 0.304444
vt 0.514984 0.373046
vt 0.608672 0.137283
vt 0.607863 0.194832
vt 0.609849 0.255462
vt 0.611436 0.314720
vt 0.612840 0.374783
vt 0.579909 0.147969
vt 0.579207 0.207041
vt 0.580157 0.267389
vt 0.581800 0.326675
vt 0.582882 0.386829
s 1
f 12/14/1 72/96/2 49/69/3 1/1/4
f 26/42/5 30/46/6 53/73/7 51/71/8
f 30/46/6 32/48/9 55/75/10 53/73/7
f 32/48/9 34/50/11 57/77/12 55/75/10
f 34/50/11 36/53/13 59/79/14 57/77/12
f 36/54/13 38/56/15 61/83/16 59/80/14
f 38/56/15 40/58/17 63/85/18 61/83/16
f 40/58/17 42/60/19 65/87/20 63/85/18
f 42/60/19 44/62/21 67/89/22 65/87/20
f 44/62/21 46/65/23 69/91/24 67/89/22
f 46/66/23 48/68/25 71/95/26 69/92/24
f 48/68/25 27/43/27 50/70/28 71/95/26
f 13/15/29 15/19/30 29/45/31 25/41/32
f 1/1/4 49/69/3 52/72/33 2/2/34
f 16/21/35 17/23/36 33/49/37 31/47/38
f 17/23/36 18/25/39 35/51/40 33/49/37
f 18/26/39 19/28/41 37/55/42 35/52/40
f 19/28/41 20/30/43 39/57/44 37/55/42
f 20/30/43 21/32/45 41/59/46 39/57/44
f 21/32/45 22/34/47 43/61/48 41/59/46
f 22/34/47 23/36/49 45/63/50 43/61/48
f 23/37/49 24/39/51 47/67/51 45/64/50
f 15/19/30 16/21/35 31/47/38 29/45/31
f 3/3/52 54/74/53 56/76/54 4/4/55
f 24/39/51 14/17/56 28/44/57 47/67/51
f 4/4/55 56/76/54 58/78/58 5/5/59
f 5/5/59 58/78/58 60/81/60 6/6/61
f 6/7/61 60/82/60 62/84/62 7/8/63
f 7/8/63 62/84/62 64/86/64 8/9/65
f 8/9/65 64/86/64 66/88/66 9/10/67
f 9/10/67 66/88/66 68/90/68 10/11/69
f 10/11/69 68/90/68 70/93/70 11/12/71
f 11/13/71 70/94/70 72/96/2 12/14/1
f 2/2/34 52/72/33 54/74/53 3/3/52
f 26/42/5 27/43/27 28/44/57 25/41/32
f 30/46/6 26/42/5 25/41/32 29/45/31
f 32/48/9 30/46/6 29/45/31 31/47/38
f 34/50/11 32/48/9 31/47/38 33/49/37
f 36/53/13 34/50/11 33/49/37 35/51/40
f 38/56/15 36/54/13 35/52/40 37/55/42
f 40/58/72 38/56/15 37/55/42 39/57/44
f 42/60/19 40/58/72 39/57/44 41/59/46
f 44/62/21 42/60/19 41/59/46 43/61/48
f 46/65/23 44/62/21 43/61/48 45/63/50
f 48/68/25 46/66/23 45/64/50 47/67/73
f 27/43/27 48/68/25 47/67/73 28/44/57
f 14/17/56 13/15/29 25/41/32 28/44/57
f 52/72/33 49/69/3 50/70/28 51/71/8
f 54/74/53 52/72/33 51/71/8 53/73/7
f 56/76/54 54/74/53 53/73/7 55/75/10
f 58/78/58 56/76/54 55/75/10 57/77/12
f 60/81/60 58/78/58 57/77/12 59/79/14
f 62/84/62 60/82/60 59/80/14 61/83/16
f 64/86/64 62/84/62 61/83/16 63/85/18
f 66/88/66 64/86/64 63/85/18 65/87/20
f 68/90/68 66/88/66 65/87/20 67/89/22
f 70/93/70 68/90/68 67/89/22 69/91/24
f 72/96/2 70/94/70 69/92/24 71/95/26
f 49/69/3 72/96/2 71/95/26 50/70/28
f 27/43/27 26/42/5 51/71/8 50/70/28
f 74/99/74 73/97/75 13/16/76 14/18/77
f 73/97/75 75/101/78 15/20/79 13/16/76
f 75/101/78 76/103/80 16/22/81 15/20/79
f 76/103/80 77/105/82 17/24/83 16/22/81
f 77/105/82 78/107/84 18/27/85 17/24/83
f 78/107/84 79/109/86 19/29/87 18/27/85
f 79/109/86 80/111/88 20/31/89 19/29/87
f 80/111/88 81/113/90 21/33/91 20/31/89
f 81/113/90 82/115/92 22/35/93 21/33/91
f 82/115/92 83/118/94 23/38/95 22/35/93
f 83/118/94 84/120/96 24/40/97 23/38/95
f 84/120/96 74/99/74 14/18/77 24/40/97
f 97/147/98 106/156/99 96/145/100 86/124/101
f 107/157/102 116/166/103 85/122/104 87/126/105
f 117/168/106 126/181/107 93/138/108 94/140/109
f 127/182/110 136/191/111 90/132/112 91/134/113
f 137/192/114 107/157/102 87/126/105 88/128/115
f 142/197/116 117/167/106 94/141/109 95/143/117
f 147/202/118 127/182/110 91/134/113 92/136/119
f 152/207/120 137/192/114 88/128/115 89/130/121
f 106/156/99 142/197/116 95/143/117 96/145/100
f 116/166/103 97/147/98 86/124/101 85/122/104
f 126/181/107 147/202/118 92/136/119 93/138/108
f 136/191/111 152/207/120 89/130/121 90/132/112
f 91/135/113 89/131/121 87/127/105
f 87/127/105 85/123/122 92/137/123
f 85/123/122 86/125/124 92/137/123
f 87/127/105 92/137/123 91/135/113
f 86/125/124 96/146/125 93/139/126
f 96/146/125 95/144/127 93/139/126
f 95/144/127 94/142/128 93/139/126
f 93/139/126 92/137/123 86/125/124
f 91/135/113 90/133/112 89/131/121
f 89/131/121 88/129/115 87/127/105
f 78/108/129 77/106/130 156/211/131 132/187/132
f 132/187/132 156/211/131 155/210/131 133/188/132
f 133/188/132 155/210/131 154/209/133 134/189/134
f 134/189/134 154/209/133 153/208/135 135/190/136
f 135/190/136 153/208/135 152/207/120 136/191/111
f 81/114/137 80/112/138 151/206/139 122/177/140
f 122/177/140 151/206/139 150/205/139 123/178/140
f 123/178/140 150/205/139 149/204/141 124/179/142
f 124/179/142 149/204/141 148/203/143 125/180/144
f 125/180/144 148/203/143 147/202/118 126/181/107
f 73/98/145 74/100/146 101/151/147 112/162/148
f 112/162/148 101/151/147 100/150/147 113/163/148
f 113/163/148 100/150/147 99/149/149 114/164/150
f 114/164/150 99/149/149 98/148/151 115/165/152
f 115/165/152 98/148/151 97/147/98 116/166/103
f 84/121/153 83/119/154 146/201/155 102/152/156
f 102/152/156 146/201/155 145/200/155 103/153/156
f 103/153/156 145/200/155 144/199/157 104/154/158
f 104/154/158 144/199/157 143/198/159 105/155/160
f 105/155/160 143/198/159 142/197/116 106/156/99
f 77/106/130 76/104/161 141/196/162 156/211/131
f 156/211/131 141/196/162 140/195/162 155/210/131
f 155/210/131 140/195/162 139/194/163 154/209/133
f 154/209/133 139/194/163 138/193/164 153/208/135
f 153/208/135 138/193/164 137/192/114 152/207/120
f 80/112/138 79/110/165 131/186/166 151/206/139
f 151/206/139 131/186/166 130/185/166 150/205/139
f 150/205/139 130/185/166 129/184/167 149/204/141
f 149/204/141 129/184/167 128/183/168 148/203/143
f 148/203/143 128/183/168 127/182/110 147/202/118
f 83/119/154 82/116/169 121/175/170 146/201/155
f 146/201/155 121/175/170 120/173/170 145/200/155
f 145/200/155 120/173/170 119/171/171 144/199/157
f 144/199/157 119/171/171 118/169/172 143/198/159
f 143/198/159 118/169/172 117/167/106 142/197/116
f 76/104/161 75/102/173 111/161/174 141/196/162
f 141/196/162 111/161/174 110/160/174 140/195/162
f 140/195/162 110/160/174 109/159/175 139/194/163
f 139/194/163 109/159/175 108/158/176 138/193/164
f 138/193/164 108/158/176 107/157/102 137/192/114
f 79/110/165 78/108/129 132/187/132 131/186/166
f 131/186/166 132/187/132 133/188/132 130/185/166
f 130/185/166 133/188/132 134/189/134 129/184/167
f 129/184/167 134/189/134 135/190/136 128/183/168
f 128/183/168 135/190/136 136/191/111 127/182/110
f 82/117/169 81/114/137 122/177/140 121/176/170
f 121/176/170 122/177/140 123/178/140 120/174/170
f 120/174/170 123/178/140 124/179/142 119/172/171
f 119/172/171 124/179/142 125/180/144 118/170/172
f 118/170/172 125/180/144 126/181/107 117/168/106
f 75/102/173 73/98/145 112/162/148 111/161/174
f 111/161/174 112/162/148 113/163/148 110/160/174
f 110/160/174 113/163/148 114/164/150 109/159/175
f 109/159/175 114/164/150 115/165/152 108/158/176
f 108/158/176 115/165/152 116/166/103 107/157/102
f 74/100/146 84/121/153 102/152/156 101/151/147
f 101/151/147 102/152/156 103/153/156 100/150/147
f 100/150/147 103/153/156 104/154/158 99/149/149
f 99/149/149 104/154/158 105/155/160 98/148/151
f 98/148/151 105/155/160 106/156/99 97/147/98
